<svg xmlns="http://www.w3.org/2000/svg" viewBox="0 0 800 360"><rect width="800" height="360" rx="28" fill="#efe3cf"/><rect x="28" y="34" width="744" height="250" rx="24" fill="#29384b" stroke="#27221e" stroke-width="5"/><circle cx="108" cy="82" r="28" fill="#f6d16c"/><circle cx="124" cy="74" r="28" fill="#29384b"/><g fill="#f8e8a8"><circle cx="190" cy="68" r="4"/><circle cx="240" cy="110" r="4"/><circle cx="660" cy="76" r="4"/><circle cx="710" cy="122" r="4"/></g><g stroke="#27221e" stroke-width="5" stroke-linecap="round" stroke-linejoin="round"><rect x="82" y="232" width="636" height="92" rx="34" fill="#7ea5c4"/><ellipse cx="405" cy="200" rx="108" ry="96" fill="#fffaf2"/><path d="M330 150l-24-42 40 20M480 150l24-42-40 20" fill="#8a6335"/><ellipse cx="405" cy="230" rx="72" ry="48" fill="#efa283"/><circle cx="370" cy="188" r="9" fill="#222"/><circle cx="440" cy="188" r="9" fill="#222"/><path d="M385 236q20 10 40 0" fill="none"/><rect x="454" y="185" width="52" height="80" rx="8" fill="#31343b" transform="rotate(-10 480 225)"/><rect x="575" y="225" width="120" height="68" rx="12" fill="#2d323b"/><path d="M598 247h74M598 267h55" stroke="#f27ca1"/></g><rect x="520" y="55" width="196" height="74" rx="24" fill="#fffaf2" stroke="#27221e" stroke-width="4"/><text x="618" y="86" text-anchor="middle" font-size="26" font-family="sans-serif" font-weight="900" fill="#27221e">小事？</text><text x="618" y="113" text-anchor="middle" font-size="19" font-family="sans-serif" fill="#27221e">大事的开头都是小事</text><text x="635" y="268" text-anchor="middle" font-size="24" font-family="monospace" fill="#f6d16c">01:37</text></svg>